<?xml version="1.0" encoding="UTF-8" standalone="no"?>
<!DOCTYPE svg PUBLIC "-//W3C//DTD SVG 1.1//EN" "http://www.w3.org/Graphics/SVG/1.1/DTD/svg11.dtd">
<svg version="1.1" xmlns="http://www.w3.org/2000/svg" xmlns:xlink="http://www.w3.org/1999/xlink" preserveAspectRatio="xMidYMid meet" viewBox="0 0 400 400" width="400" height="400"><defs><path d="M596.55 195.49C596.55 219.28 571.87 238.59 541.48 238.59C511.08 238.59 486.41 219.28 486.41 195.49C486.41 171.71 511.08 152.39 541.48 152.39C571.87 152.39 596.55 171.71 596.55 195.49Z" id="a3avWXLw6P"></path><path d="M33.87 6.94L50.63 6.94L50.63 384.05L33.87 384.05L33.87 6.94Z" id="a18WtJIl3Q"></path><path d="M45.85 6.94L304.44 6.94L304.44 18.91L45.85 18.91L45.85 6.94Z" id="b1QSQ6c9ZR"></path><path d="M41.06 74.04L111.91 9.62L121.76 20.45L50.9 84.86L41.06 74.04Z" id="ddLPgyh5a"></path><path d="M524.79 234.44L534 223.24L546.32 219.96L557.89 222.78L565.35 233.56" id="dHEj6wtPu"></path><path d="M490 171.27L600.14 171.27L600.14 200L490 200L490 171.27Z" id="asbHpQ8YM"></path><path d="M530.7 185.92C530.7 191.2 524.27 195.49 516.34 195.49C508.41 195.49 501.97 191.2 501.97 185.92C501.97 180.63 508.41 176.34 516.34 176.34C524.27 176.34 530.7 180.63 530.7 185.92Z" id="b65MACGRe"></path><path d="M509.15 189.51C509.15 192.81 512.37 195.49 516.34 195.49C520.3 195.49 523.52 192.81 523.52 189.51C523.52 186.2 520.3 183.52 516.34 183.52C512.37 183.52 509.15 186.2 509.15 189.51Z" id="c2YkY55Yqn"></path><path d="M573.8 189.51C573.8 194.79 567.37 199.08 559.44 199.08C551.51 199.08 545.07 194.79 545.07 189.51C545.07 184.22 551.51 179.93 559.44 179.93C567.37 179.93 573.8 184.22 573.8 189.51Z" id="c1irRDcEqp"></path><path d="M555.42 191.62C555.42 194.92 558.64 197.61 562.61 197.61C566.57 197.61 569.79 194.92 569.79 191.62C569.79 188.32 566.57 185.63 562.61 185.63C558.64 185.63 555.42 188.32 555.42 191.62Z" id="j3E0A2FZ3"></path><path d="M194.19 123.95L193.14 122.67L192.15 121.36L191.22 120.02L190.35 118.64L189.55 117.24L188.8 115.82L188.11 114.37L187.49 112.89L186.92 111.4L186.42 109.89L185.98 108.37L185.6 106.83L185.27 105.27L185.01 103.71L184.81 102.14L184.67 100.56L184.59 98.98L184.57 97.39L184.61 95.8L184.72 94.22L184.88 92.63L185.1 91.05L185.39 89.48L185.73 87.91L186.14 86.36L186.6 84.81L187.13 83.28L187.71 81.77L188.36 80.27L189.07 78.8L189.83 77.34L190.66 75.91L191.55 74.5L192.5 73.12L193.51 71.77L194.58 70.45L195.71 69.17L196.9 67.91L198.13 66.71L199.41 65.56L200.71 64.48L202.05 63.45L203.42 62.49L204.82 61.58L206.24 60.74L207.68 59.95L209.15 59.23L210.64 58.56L212.15 57.96L213.67 57.41L215.21 56.93L216.76 56.51L218.26 56.16L218.53 19.22L234.43 18.91L234.17 55.85L235.67 56.14L237.22 56.51L238.75 56.93L240.26 57.42L241.76 57.96L243.24 58.57L244.7 59.24L246.13 59.97L247.54 60.76L248.93 61.61L250.28 62.52L251.6 63.49L252.9 64.53L254.15 65.63L255.37 66.78L256.55 67.99L257.66 69.23L258.71 70.51L259.7 71.82L260.63 73.17L261.49 74.54L262.3 75.94L263.05 77.37L263.73 78.82L264.36 80.29L264.92 81.78L265.43 83.29L265.87 84.82L266.25 86.36L266.57 87.91L266.84 89.47L267.04 91.04L267.18 92.62L267.26 94.21L267.27 95.79L267.23 97.38L267.13 98.97L266.97 100.55L266.74 102.13L266.46 103.71L266.12 105.27L265.71 106.83L265.25 108.37L264.72 109.9L264.13 111.41L263.49 112.91L262.78 114.39L262.01 115.84L261.19 117.27L260.3 118.68L259.35 120.06L258.34 121.41L257.27 122.73L256.14 124.02L254.95 125.27L253.71 126.48L252.44 127.62L251.13 128.71L249.8 129.73L248.43 130.7L247.03 131.6L245.61 132.45L244.16 133.23L242.7 133.96L241.21 134.62L239.7 135.22L238.18 135.77L236.64 136.25L235.09 136.68L233.53 137.04L231.96 137.34L230.38 137.58L228.8 137.77L227.21 137.89L225.63 137.95L224.04 137.95L222.45 137.89L220.87 137.77L219.3 137.59L217.73 137.34L216.18 137.04L214.63 136.68L213.1 136.25L211.59 135.77L210.09 135.22L208.61 134.61L207.15 133.95L205.72 133.22L204.31 132.43L202.92 131.57L201.57 130.66L200.24 129.69L198.95 128.65L197.7 127.56L196.47 126.4L195.3 125.19L194.19 123.95ZM209.28 116.37L210.08 117.01L210.9 117.61L211.73 118.18L212.59 118.7L213.46 119.19L214.34 119.64L215.24 120.05L216.15 120.43L217.08 120.76L218.01 121.06L218.96 121.33L219.91 121.55L220.87 121.74L221.84 121.89L222.81 122L223.78 122.07L224.76 122.11L225.74 122.11L226.72 122.07L227.7 122L228.67 121.89L229.65 121.74L230.62 121.55L231.58 121.32L232.54 121.06L233.49 120.76L234.43 120.43L235.35 120.06L236.27 119.65L237.18 119.2L238.07 118.71L238.95 118.19L239.81 117.63L240.65 117.04L241.48 116.41L242.29 115.74L243.07 115.03L243.84 114.29L244.57 113.51L245.27 112.72L245.93 111.91L246.55 111.07L247.13 110.22L247.68 109.35L248.19 108.47L248.67 107.57L249.1 106.66L249.5 105.74L249.86 104.8L250.19 103.86L250.47 102.91L250.72 101.95L250.94 100.98L251.11 100.01L251.25 99.04L251.35 98.06L251.41 97.08L251.44 96.1L251.43 95.12L251.38 94.14L251.29 93.17L251.17 92.2L251.01 91.23L250.81 90.28L250.57 89.33L250.3 88.38L249.99 87.45L249.64 86.53L249.25 85.62L248.83 84.73L248.37 83.85L247.87 82.99L247.34 82.14L246.76 81.31L246.15 80.5L245.5 79.71L244.82 78.94L244.1 78.2L243.34 77.48L242.57 76.81L241.77 76.17L240.95 75.57L240.12 75.01L239.26 74.48L238.39 73.99L237.51 73.54L236.61 73.13L235.7 72.76L234.77 72.42L233.84 72.12L232.89 71.86L231.94 71.63L230.98 71.45L230.01 71.3L229.04 71.18L228.06 71.11L227.09 71.07L226.11 71.07L225.13 71.11L224.15 71.19L223.17 71.3L222.2 71.45L221.23 71.63L220.27 71.86L219.31 72.12L218.36 72.42L217.42 72.75L216.49 73.13L215.57 73.54L214.67 73.98L213.78 74.47L212.9 74.99L212.04 75.55L211.19 76.14L210.37 76.78L209.56 77.45L208.78 78.15L208.01 78.9L207.28 79.67L206.58 80.46L205.92 81.28L205.3 82.11L204.71 82.96L204.17 83.83L203.66 84.71L203.18 85.61L202.75 86.52L202.35 87.45L201.99 88.38L201.66 89.32L201.37 90.28L201.12 91.24L200.91 92.2L200.74 93.17L200.6 94.15L200.5 95.13L200.44 96.1L200.41 97.08L200.42 98.06L200.47 99.04L200.56 100.01L200.68 100.98L200.84 101.95L201.04 102.91L201.28 103.86L201.55 104.8L201.86 105.73L202.21 106.65L202.59 107.56L203.02 108.45L203.48 109.33L203.98 110.2L204.51 111.04L205.09 111.87L205.7 112.68L206.34 113.47L207.03 114.24L207.75 114.98L208.51 115.7L209.28 116.37Z" id="a13D64w6NB"></path></defs><g><g><g><use xlink:href="#a3avWXLw6P" opacity="1" fill="#fcdc9d" fill-opacity="1"></use></g><g><use xlink:href="#a18WtJIl3Q" opacity="1" fill="#000000" fill-opacity="1"></use></g><g><use xlink:href="#b1QSQ6c9ZR" opacity="1" fill="#090909" fill-opacity="1"></use></g><g><use xlink:href="#ddLPgyh5a" opacity="1" fill="#090909" fill-opacity="1"></use></g><g><g><use xlink:href="#dHEj6wtPu" opacity="1" fill-opacity="0" stroke="#000000" stroke-width="5" stroke-opacity="1"></use></g></g><g><use xlink:href="#asbHpQ8YM" opacity="1" fill="#090909" fill-opacity="1"></use></g><g><use xlink:href="#b65MACGRe" opacity="1" fill="#ffffff" fill-opacity="1"></use></g><g><use xlink:href="#c2YkY55Yqn" opacity="1" fill="#090909" fill-opacity="1"></use></g><g><use xlink:href="#c1irRDcEqp" opacity="1" fill="#ffffff" fill-opacity="1"></use></g><g><use xlink:href="#j3E0A2FZ3" opacity="1" fill="#090909" fill-opacity="1"></use></g><g><use xlink:href="#a13D64w6NB" opacity="1" fill="#9f5834" fill-opacity="1"></use></g></g></g></svg>